<?xml version="1.0" encoding="UTF-8"?>
<svg width="374px" height="80px" viewBox="0 0 374 80" version="1.1" xmlns="http://www.w3.org/2000/svg" xmlns:xlink="http://www.w3.org/1999/xlink">
    <title>logo-blissberry</title>
    <g id="logo-blissberry" stroke="none" stroke-width="1" fill="none" fill-rule="evenodd">
        <g id="Group" transform="translate(0.000000, -1.000000)" fill-rule="nonzero">
            <g id="g1516" transform="translate(168.983062, 76.675731) scale(-1, 1) rotate(-180.000000) translate(-168.983062, -76.675731) translate(164.983063, 72.009065)" fill="#53459B">
                <polygon id="path1518" points="7.9999998 9.3333331 7.9999998 1.1653333 5.99466652 1.1653333 5.99466652 4.51466655 2.05599995 4.51466655 2.05599995 1.1653333 0.0493333321 1.1653333 0.0493333321 9.3333331 2.05599995 9.3333331 2.05599995 6.11333318 5.99466652 6.11333318 5.99466652 9.3333331"></polygon>
            </g>
            <g id="g1520" transform="translate(181.468129, 76.660131) scale(-1, 1) rotate(-180.000000) translate(-181.468129, -76.660131) translate(177.468129, 71.993465)" fill="#53459B">
                <polygon id="path1522" points="7.9999998 2.6666666 7.9999998 1.1493333 1.28666663 1.1493333 1.28666663 9.3173331 7.83866647 9.3173331 7.83866647 7.80266647 3.28133325 7.80266647 3.28133325 6.02799985 7.30666648 6.02799985 7.30666648 4.55599989 3.28133325 4.55599989 3.28133325 2.6666666"></polygon>
            </g>
            <g id="g1524" transform="translate(194.526662, 76.324131) scale(-1, 1) rotate(-180.000000) translate(-194.526662, -76.324131) translate(189.193329, 71.657465)" fill="#53459B">
                <path d="M6.6666665,3.9999999 L5.29199987,7.12799982 L3.91733324,3.9999999 L6.6666665,3.9999999 Z M7.29866648,2.56399994 L3.27333325,2.56399994 L2.50533327,0.813333313 L0.449333322,0.813333313 L4.31333323,8.98133311 L6.29599984,8.98133311 L10.1719997,0.813333313 L8.06666646,0.813333313 L7.29866648,2.56399994 Z" id="path1526"></path>
            </g>
            <g id="g1528" transform="translate(207.319061, 76.675731) scale(-1, 1) rotate(-180.000000) translate(-207.319061, -76.675731) translate(203.985728, 72.009065)" fill="#53459B">
                <polygon id="path1530" points="0 9.3333331 2.00666662 9.3333331 2.00666662 2.70533327 6.35333317 2.70533327 6.35333317 1.1653333 0 1.1653333"></polygon>
            </g>
            <g id="g1532" transform="translate(216.951195, 75.549465) scale(-1, 1) rotate(-180.000000) translate(-216.951195, -75.549465) translate(212.284528, 70.882798)" fill="#53459B">
                <polygon id="path1534" points="3.9999999 6.6666665 1.11333331 6.6666665 1.11333331 8.20666646 8.97333311 8.20666646 8.97333311 6.6666665 6.08666651 6.6666665 6.08666651 0.0386666657 3.9999999 0.0386666657"></polygon>
            </g>
            <g id="g1536" transform="translate(229.698661, 76.675731) scale(-1, 1) rotate(-180.000000) translate(-229.698661, -76.675731) translate(225.698661, 72.009065)" fill="#53459B">
                <polygon id="path1538" points="7.9999998 9.3333331 7.9999998 1.1653333 5.99466652 1.1653333 5.99466652 4.51466655 2.05599995 4.51466655 2.05599995 1.1653333 0.0493333321 1.1653333 0.0493333321 9.3333331 2.05599995 9.3333331 2.05599995 6.11333318 5.99466652 6.11333318 5.99466652 9.3333331"></polygon>
            </g>
            <g id="g1540" transform="translate(247.885460, 76.075465) scale(-1, 1) rotate(-180.000000) translate(-247.885460, -76.075465) translate(243.218794, 70.742132)" fill="#53459B">
                <path d="M3.9999999,7.9999998 C3.8319999,7.86133314 3.74799991,7.68533314 3.74799991,7.46933315 C3.74799991,7.30533315 3.79333324,7.15333315 3.88266657,7.01199982 C3.9719999,6.86799983 4.14933323,6.67733317 4.41066656,6.43866651 C4.82933321,6.6466665 5.11866654,6.83333316 5.28266653,6.99999982 C5.44666653,7.16533315 5.5293332,7.34533315 5.5293332,7.53733314 C5.5293332,7.73866647 5.45466653,7.90133314 5.30799987,8.0239998 C5.15999987,8.14666646 4.95199988,8.20799979 4.68133322,8.20799979 C4.39466656,8.20799979 4.16666656,8.13866646 3.9999999,7.9999998 M6.01999985,2.97866659 L3.9439999,4.80666655 C3.55866658,4.59866655 3.28533325,4.39466656 3.12133326,4.19466656 C2.95733326,3.99333323 2.87599993,3.76533324 2.87599993,3.51066658 C2.87599993,3.20933325 3.01466659,2.96799993 3.29333325,2.7826666 C3.57199991,2.59599994 3.9439999,2.50399994 4.41066656,2.50399994 C5.00799987,2.50399994 5.54533319,2.66133327 6.01999985,2.97866659 M8.18133313,1.09199997 L7.15066649,1.99466662 C6.33066651,1.3933333 5.3733332,1.09199997 4.27599989,1.09199997 C3.65333324,1.09199997 3.09333326,1.18799997 2.59333327,1.37599997 C2.09466661,1.56533329 1.70266662,1.82799995 1.41999996,2.16799995 C1.13866664,2.50799994 0.997333308,2.88933326 0.997333308,3.31466658 C0.997333308,3.81466657 1.14666664,4.25599989 1.44399996,4.63866655 C1.74399996,5.02133321 2.22533328,5.3853332 2.88799993,5.73333319 C2.57733327,6.03333318 2.35199994,6.31999984 2.21333328,6.5946665 C2.07333328,6.86799983 2.00399995,7.15199982 2.00399995,7.44533315 C2.00399995,7.83866647 2.11333328,8.18666646 2.33466661,8.48666645 C2.55599994,8.78799978 2.86933326,9.02133311 3.27599992,9.18666644 C3.67999991,9.3533331 4.14933323,9.43599976 4.68133322,9.43599976 C5.42666653,9.43599976 6.02399985,9.26799977 6.47333317,8.93199978 C6.92399983,8.59733312 7.15066649,8.14266646 7.15066649,7.57333314 C7.15066649,7.15599982 7.01599982,6.7866665 6.7506665,6.46266651 C6.48399984,6.13866651 6.05733318,5.82533319 5.46799986,5.5253332 L7.03866649,4.14666656 C7.22799982,4.51866655 7.37066648,4.93733321 7.46933315,5.4093332 L9.00399977,4.95733321 C8.83999978,4.23999989 8.57866645,3.62666658 8.21866646,3.11733326 L9.2253331,2.23866661 L8.18133313,1.09199997 Z" id="path1542"></path>
            </g>
            <g id="g1544" transform="translate(266.650393, 76.497331) scale(-1, 1) rotate(-180.000000) translate(-266.650393, -76.497331) translate(261.983727, 71.830665)" fill="#53459B">
                <path d="M6.6666665,2.6666666 C6.93733316,2.8306666 7.07199982,3.08533326 7.07199982,3.42933325 C7.07199982,4.11066656 6.53599984,4.45199989 5.4653332,4.45199989 L3.11066659,4.45199989 L3.11066659,2.41999994 L5.4653332,2.41999994 C5.99599985,2.41999994 6.39599984,2.5026666 6.6666665,2.6666666 M3.11066659,7.77199981 L3.11066659,5.83733319 L5.11599987,5.83733319 C5.61466653,5.83733319 5.99199985,5.91866652 6.24933318,6.08399985 C6.5066665,6.24799984 6.63599983,6.48933317 6.63599983,6.80933316 C6.63599983,7.13199982 6.5066665,7.37066648 6.24933318,7.53199981 C5.99199985,7.69333314 5.61466653,7.77199981 5.11599987,7.77199981 L3.11066659,7.77199981 Z M8.67866645,4.51599989 C8.96133311,4.1679999 9.10266644,3.73866657 9.10266644,3.23066659 C9.10266644,2.5106666 8.80533311,1.95733328 8.21199979,1.57066663 C7.61733314,1.18266664 6.75199983,0.987999975 5.61466653,0.987999975 L1.10533331,0.987999975 L1.10533331,9.20399977 L5.3653332,9.20399977 C6.42799984,9.20399977 7.24399982,9.01333311 7.81333314,8.63066645 C8.38266646,8.24666646 8.66666645,7.72666647 8.66666645,7.06933316 C8.66666645,6.6706665 8.56533312,6.31333318 8.36133312,6.00133318 C8.15733313,5.68799986 7.87333314,5.4413332 7.50799981,5.25999987 C8.00666647,5.11199987 8.39599979,4.86266655 8.67866645,4.51599989" id="path1546"></path>
            </g>
            <g id="g1548" transform="translate(279.108126, 75.983065) scale(-1, 1) rotate(-180.000000) translate(-279.108126, -75.983065) translate(275.108126, 70.649732)" fill="#53459B">
                <polygon id="path1550" points="7.9999998 2.6666666 7.9999998 1.13999997 1.24799997 1.13999997 1.24799997 9.3573331 7.83733314 9.3573331 7.83733314 7.8319998 3.25333325 7.8319998 3.25333325 6.04666652 7.30266648 6.04666652 7.30266648 4.56799989 3.25333325 4.56799989 3.25333325 2.6666666"></polygon>
            </g>
            <g id="g1552" transform="translate(292.227193, 76.304665) scale(-1, 1) rotate(-180.000000) translate(-292.227193, -76.304665) translate(286.893859, 71.637998)" fill="#53459B">
                <path d="M6.6666665,3.9999999 L5.28399987,7.14533315 L3.90133324,3.9999999 L6.6666665,3.9999999 Z M7.30266648,2.55599994 L3.25333325,2.55599994 L2.47999994,0.79599998 L0.413333323,0.79599998 L4.29999989,9.01199977 L6.29333318,9.01199977 L10.1919997,0.79599998 L8.07466646,0.79599998 L7.30266648,2.55599994 Z" id="path1554"></path>
            </g>
            <g id="g1556" transform="translate(305.845059, 76.009065) scale(-1, 1) rotate(-180.000000) translate(-305.845059, -76.009065) translate(301.178392, 71.342398)" fill="#53459B">
                <path d="M1.3333333,1.3333333 C0.638666651,1.98266662 0.291999993,2.91066659 0.291999993,4.1159999 L0.291999993,8.71599978 L2.31066661,8.71599978 L2.31066661,4.18666656 C2.31066661,2.7146666 2.95866659,1.97866662 4.25466656,1.97866662 C4.88533321,1.97866662 5.36799987,2.15733328 5.69866652,2.51333327 C6.03199985,2.86933326 6.19733318,3.42666658 6.19733318,4.18666656 L6.19733318,8.71599978 L8.19066646,8.71599978 L8.19066646,4.1159999 C8.19066646,2.91066659 7.8439998,1.98266662 7.15066649,1.3333333 C6.45733317,0.683999983 5.48799986,0.359999991 4.24266656,0.359999991 C2.99599993,0.359999991 2.02666662,0.683999983 1.3333333,1.3333333" id="path1558"></path>
            </g>
            <g id="g1560" transform="translate(317.423192, 75.509065) scale(-1, 1) rotate(-180.000000) translate(-317.423192, -75.509065) translate(312.756526, 70.842398)" fill="#53459B">
                <polygon id="path1562" points="3.9999999 6.6666665 1.2093333 6.6666665 1.2093333 8.21599979 8.80799978 8.21599979 8.80799978 6.6666665 6.01866652 6.6666665 6.01866652 0 3.9999999 0"></polygon>
            </g>
            <g id="g1564" transform="translate(329.077458, 76.597598) scale(-1, 1) rotate(-180.000000) translate(-329.077458, -76.597598) translate(323.744125, 71.930932)" fill="#53459B">
                <polygon id="path1566" points="6.6666665 3.9999999 6.6666665 1.08799997 4.64799988 1.08799997 4.64799988 4.0239999 1.2733333 9.3053331 3.41599991 9.3053331 5.74533319 5.65466653 8.07466646 9.3053331 10.0559997 9.3053331"></polygon>
            </g>
            <g id="g1568" transform="translate(22.666666, 29.351466) scale(-1, 1) rotate(-180.000000) translate(-22.666666, -29.351466) translate(-0.000000, 0.018133)" fill="#53459B">
                <path d="M27.9999993,19.9999995 C27.5279993,21.2066661 26.8853327,22.2413328 26.0733327,23.1026661 C25.2613327,23.9639994 24.2919994,24.6413327 23.1666661,25.134666 C22.0386661,25.626666 20.8213328,25.8719994 19.5146662,25.8719994 L14.3079996,25.8719994 L14.3079996,7.25733315 L20.5279995,7.25733315 C23.0986661,7.25733315 25.1039994,8.02133313 26.546666,9.54799976 C27.9893326,11.0733331 28.7106659,13.241333 28.7106659,16.0479996 C28.7106659,17.4759996 28.4733326,18.7933329 27.9999993,19.9999995 M27.490666,40.8506656 C27.490666,43.8293322 26.7999993,46.1266655 25.2813327,47.7466655 C23.7639994,49.3653321 21.7146661,50.1759987 19.1333329,50.1759987 L14.3079996,50.1759987 L14.3079996,32.1546659 L19.9479995,32.1546659 C25.0213327,32.1546659 27.534666,35.0533325 27.490666,40.8506656 M43.2106656,7.25733315 C40.115999,2.43066661 35.0719991,0.0186666662 28.0773326,0.0186666662 L0.0293333326,0.0186666662 L0.0293333326,52.169332 C0.0293333326,53.597332 0.510666654,54.8399986 1.47466663,55.8999986 C2.43866661,56.9586652 3.57199991,57.4879986 4.87199988,57.4879986 L25.050666,57.4879986 C30.0279992,57.4879986 34.1066658,56.2813319 37.2906657,53.869332 C41.0573323,51.1106654 42.9413323,47.1466655 42.9413323,41.975999 C42.9413323,38.527999 41.9093323,35.5973324 39.847999,33.1866658 C37.8293324,30.8226659 35.2493325,29.4933326 32.1119992,29.1973326 L32.0453325,28.9759993 C35.6319991,28.1879993 38.6133324,26.5853327 40.9906656,24.1746661 C43.6359989,21.4159995 44.9599989,18.1399995 44.9599989,14.349333 C44.9599989,11.4919997 44.3759989,9.12933311 43.2106656,7.25733315" id="path1570"></path>
            </g>
            <g id="g1572" transform="translate(57.220799, 29.333333) scale(-1, 1) rotate(-180.000000) translate(-57.220799, -29.333333) translate(49.887465, 0.000000)" fill="#53459B">
                <path d="M14.6666663,0 L0.333333325,0 L0.26666666,49.8813321 C0.26666666,50.8919987 0.465333322,51.8586654 0.861333312,52.777332 C1.2573333,53.697332 1.78533329,54.5039986 2.44666661,55.193332 C3.10666659,55.8839986 3.87733324,56.4346653 4.75866655,56.8493319 C5.63866653,57.2626652 6.56399984,57.4706652 7.53199981,57.4706652 C8.50133312,57.4706652 9.41599976,57.2626652 10.2746664,56.8493319 C11.1333331,56.4346653 11.8919997,55.8839986 12.553333,55.193332 C13.213333,54.5039986 13.7306663,53.697332 14.105333,52.777332 C14.4786663,51.8586654 14.6666663,50.8919987 14.6666663,49.8813321 L14.6666663,0 Z" id="path1574"></path>
            </g>
            <g id="g1576" transform="translate(78.771465, 29.398399) scale(-1, 1) rotate(-180.000000) translate(-78.771465, -29.398399) translate(70.771465, 0.065067)" fill="#53459B">
                <path d="M13.333333,49.3333321 C13.025333,48.6719988 12.593333,48.0906655 12.037333,47.5906655 C11.4826664,47.0893322 10.8439997,46.6986655 10.1253331,46.4186655 C9.40666643,46.1386655 8.65599978,45.9986655 7.87466647,45.9986655 C6.22933318,45.9986655 4.83066655,46.5186655 3.67999991,47.5613321 C2.52799994,48.6013321 1.95333328,49.9226654 1.95333328,51.5266654 C1.95333328,53.209332 2.50799994,54.6306653 3.61866658,55.7933319 C4.72933322,56.9533319 6.14666651,57.5346652 7.87466647,57.5346652 C9.60133309,57.5346652 11.0199997,56.9533319 12.1306664,55.7933319 C13.241333,54.6306653 13.7959997,53.209332 13.7959997,51.5266654 C13.7959997,50.7253321 13.641333,49.9946654 13.333333,49.3333321 M15.2906663,0.203999995 L0.953333309,0.203999995 L0.953333309,34.6573325 C0.953333309,35.6919991 1.1493333,37.3573324 1.53999996,38.299999 C1.93066662,39.239999 2.45199994,40.063999 3.10399992,40.7706656 C3.75466657,41.475999 4.51466655,42.0413323 5.3853332,42.4639989 C6.25333318,42.8879989 7.16666649,43.0999989 8.12133313,43.0999989 C9.03333311,43.0999989 9.92399975,42.8879989 10.7946664,42.4639989 C11.6626664,42.0413323 12.4439997,41.475999 13.1399997,40.7706656 C13.8346663,40.063999 14.3786663,39.239999 14.769333,38.299999 C15.1599996,37.3573324 15.3333329,35.6919991 15.2906663,34.6573325 L15.2906663,0.203999995 Z" id="path1578"></path>
            </g>
            <g id="g1580" transform="translate(142.662796, 39.415332) scale(-1, 1) rotate(-180.000000) translate(-142.662796, -39.415332) translate(127.329463, 18.748666)" fill="#53459B">
                <path d="M1.3333333,6.6666665 C0.763999981,7.35199982 0.478666655,8.0359998 0.478666655,8.71999978 C0.478666655,9.45066643 0.665333317,10.1239997 1.03866664,10.7413331 C1.4093333,11.3586664 1.92533329,11.8599997 2.5826666,12.2479997 C3.23999992,12.6359997 3.9399999,12.829333 4.68533322,12.829333 C5.2533332,12.829333 5.91066652,12.5786664 6.65599983,12.077333 C7.39999981,11.573333 8.1679998,11.0266664 8.95599978,10.4333331 C9.74533309,9.83866642 10.5333331,9.29066643 11.3213331,8.78933311 C12.1106664,8.28666646 12.833333,8.0359998 13.4906663,8.0359998 C16.2933329,8.0359998 17.6946662,9.1533331 17.6946662,11.3906664 C17.6946662,12.029333 17.3893329,12.625333 16.7759996,13.1719997 C16.1613329,13.7199997 15.4173329,14.209333 14.541333,14.6439996 C13.665333,15.077333 12.7559997,15.4666663 11.8146664,15.8079996 C10.8719997,16.1506663 10.0946664,16.4586663 9.4813331,16.7333329 C3.34799992,19.2893329 0.28266666,22.9173328 0.28266666,27.6213326 C0.28266666,29.7653326 0.686666649,31.6386659 1.49866663,33.2359992 C2.30799994,34.8333325 3.39199992,36.1679991 4.75066655,37.2426657 C6.10799985,38.3146657 7.67466647,39.135999 9.44799976,39.7066657 C11.2226664,40.2773323 13.0959997,40.5853323 15.0666663,40.631999 C16.3813329,40.675999 17.8693329,40.4826657 19.5359995,40.0493323 C21.1999995,39.6146657 22.7439994,39.0333324 24.1679994,38.303999 C25.5919994,37.5719991 26.7853327,36.7039991 27.7493326,35.7013324 C28.7133326,34.6959991 29.1719993,33.6466658 29.1293326,32.5519992 C29.0853326,31.4999992 28.7026659,30.6679992 27.978666,30.0519992 C27.2559993,29.4346659 26.390666,29.1279993 25.3839994,29.1279993 C24.814666,29.1279993 24.6333327,29.0439993 23.8386661,29.5213326 C23.1439994,29.9373326 22.2599994,30.5399992 21.5146661,31.1559992 C20.7706661,31.7733325 19.9813328,32.3199992 19.1493329,32.7999992 C18.3173329,33.2786658 17.4186662,33.5186658 16.4559996,33.5186658 C13.9146663,33.4733325 12.6359997,32.6879992 12.6359997,30.3599992 C12.6359997,29.7199993 12.9199997,29.1613326 13.4906663,28.6826659 C14.0586663,28.202666 14.7599996,27.7573326 15.5933329,27.346666 C16.4239996,26.9359993 17.3333329,26.558666 18.3199995,26.2173327 C19.3053329,25.874666 20.2146662,25.542666 21.0479995,25.2239994 C27.3559993,22.7586661 30.5093326,19.0613329 30.5093326,14.1319996 C30.5093326,11.9839997 30.0706659,10.1013331 29.1946659,8.47999979 C28.318666,6.85999983 27.1573327,5.50266653 25.7119994,4.40799989 C24.2666661,3.31066658 22.6239994,2.49999994 20.7839995,1.97466662 C18.9439995,1.45066663 17.0386662,1.21066664 15.0666663,1.25599997 C9.06533311,1.25599997 4.48799989,3.05866659 1.3333333,6.6666665" id="path1582"></path>
            </g>
            <g id="g1584" transform="translate(108.104264, 39.415332) scale(-1, 1) rotate(-180.000000) translate(-108.104264, -39.415332) translate(92.770931, 18.748666)" fill="#53459B">
                <path d="M1.3333333,6.6666665 C0.763999981,7.35199982 0.478666655,8.0359998 0.478666655,8.71999978 C0.478666655,9.45066643 0.665333317,10.1239997 1.03866664,10.7413331 C1.4093333,11.3586664 1.92533329,11.8599997 2.5826666,12.2479997 C3.23999992,12.6359997 3.9399999,12.829333 4.68533322,12.829333 C5.2533332,12.829333 5.91066652,12.5786664 6.65599983,12.077333 C7.39999982,11.573333 8.1679998,11.0266664 8.95599978,10.4333331 C9.74533309,9.83866642 10.5333331,9.29066643 11.3226664,8.78933311 C12.1106664,8.28666646 12.833333,8.0359998 13.4906663,8.0359998 C16.2933329,8.0359998 17.6946662,9.1533331 17.6946662,11.3906664 C17.6946662,12.029333 17.3893329,12.625333 16.7759996,13.1719997 C16.1613329,13.7199997 15.4173329,14.209333 14.541333,14.6439996 C13.665333,15.077333 12.7559997,15.4666663 11.8146664,15.8079996 C10.8719997,16.1506663 10.0946664,16.4586663 9.4813331,16.7333329 C3.34799992,19.2893329 0.28266666,22.9173328 0.28266666,27.6213326 C0.28266666,29.7653326 0.68666665,31.6386659 1.49866663,33.2359992 C2.30799994,34.8333325 3.39199992,36.1679991 4.75066655,37.2426657 C6.10799985,38.3146657 7.67466647,39.135999 9.4493331,39.7066657 C11.2239997,40.2773323 13.0959997,40.5853323 15.0679996,40.631999 C16.3813329,40.675999 17.8693329,40.4826657 19.5359995,40.0493323 C21.1999995,39.6146657 22.7439994,39.0333324 24.1679994,38.303999 C25.5919994,37.5719991 26.7853327,36.7039991 27.7493326,35.7013324 C28.7133326,34.6959991 29.1719993,33.6466658 29.1293326,32.5519992 C29.0853326,31.4999992 28.7026659,30.6679992 27.978666,30.0519992 C27.2559993,29.4346659 26.390666,29.1279993 25.3839994,29.1279993 C24.814666,29.1279993 24.6333327,29.0439993 23.8399994,29.5213326 C23.1453328,29.9373326 22.2599994,30.5399992 21.5159995,31.1559992 C20.7706661,31.7733325 19.9813328,32.3199992 19.1493329,32.7999992 C18.3173329,33.2786658 17.4186662,33.5186658 16.4559996,33.5186658 C13.9146663,33.4733325 12.6359997,32.6879992 12.6359997,30.3599992 C12.6359997,29.7199993 12.9199997,29.1613326 13.4906663,28.6826659 C14.0586663,28.202666 14.7599996,27.7573326 15.5933329,27.346666 C16.4239996,26.9359993 17.3333329,26.558666 18.3199995,26.2173327 C19.3053329,25.874666 20.2146662,25.542666 21.0479995,25.2239994 C27.3559993,22.7586661 30.5093326,19.0613329 30.5093326,14.1319996 C30.5093326,11.9839997 30.0706659,10.1013331 29.1946659,8.47999979 C28.318666,6.85999983 27.158666,5.50266653 25.7119994,4.40799989 C24.2666661,3.31066658 22.6239994,2.49999994 20.7839995,1.97466662 C18.9439995,1.45066663 17.0386662,1.21066664 15.0679996,1.25599997 C9.06533311,1.25599997 4.48799989,3.05866659 1.3333333,6.6666665" id="path1586"></path>
            </g>
            <g id="g1588" transform="translate(275.404260, 39.292932) scale(-1, 1) rotate(-180.000000) translate(-275.404260, -39.292932) translate(258.070927, 18.626266)" fill="#00A9DD">
                <path d="M14.6666663,26.666666 L14.6666663,1.2773333 L0.354666658,1.20799997 L0.354666658,40.5333323 L14.6666663,40.5333323 L14.6666663,37.6359991 C15.4053329,38.4173324 15.9706663,39.015999 16.8173329,39.4306657 C17.6653329,39.8426657 18.5453329,40.1653323 19.4586662,40.395999 C20.0226662,40.5333323 20.7946661,40.5906657 21.7733328,40.567999 C22.7506661,40.543999 23.7946661,40.4413323 24.902666,40.2573323 C26.010666,40.0733323 27.1399993,39.8093323 28.2933326,39.463999 C29.4439993,39.1186657 30.4879992,38.6813324 31.4226659,38.1533324 C32.3573325,37.6239991 33.1173325,37.0026657 33.7039992,36.2906658 C34.2906658,35.5773324 34.5839991,34.7613325 34.5839991,33.8413325 C34.5839991,33.1053325 34.4426658,32.3466659 34.1613325,31.5653325 C33.8773325,30.7813326 33.4866658,30.0706659 32.9866658,29.4253326 C32.4879992,28.7813326 31.8999992,28.2533326 31.2266659,27.8399993 C30.5533326,27.4253326 29.8466659,27.218666 29.1079993,27.218666 C28.2373326,27.218666 27.4453326,27.482666 26.7279993,28.0119993 C26.010666,28.5399993 25.2933327,29.1266659 24.5759994,29.7706659 C23.8599994,30.4146659 23.1319994,31.0013326 22.3919994,31.5306659 C21.6519995,32.0586659 20.8266661,32.3239992 19.9146662,32.3239992 C18.0013329,32.3239992 16.5893329,31.7946659 15.6759996,30.7373326 C15.0679996,29.9999992 14.8839996,28.642666 14.6666663,26.666666" id="path1590"></path>
            </g>
            <g id="g1592" transform="translate(312.955726, 39.292932) scale(-1, 1) rotate(-180.000000) translate(-312.955726, -39.292932) translate(295.622393, 18.626266)" fill="#00A9DD">
                <path d="M14.6666663,26.666666 L14.6666663,1.2773333 L0.355999991,1.20799997 L0.355999991,40.5333323 L14.6666663,40.5333323 L14.6666663,37.6359991 C15.4053329,38.4173324 15.9706663,39.015999 16.8186662,39.4306657 C17.6666662,39.8426657 18.5453329,40.1653323 19.4586662,40.395999 C20.0239995,40.5333323 20.7959995,40.5906657 21.7733328,40.567999 C22.7506661,40.543999 23.7946661,40.4413323 24.9039994,40.2573323 C26.010666,40.0733323 27.1413327,39.8093323 28.2933326,39.463999 C29.4439993,39.1186657 30.4879992,38.6813324 31.4226659,38.1533324 C32.3573325,37.6239991 33.1173325,37.0026657 33.7039992,36.2906658 C34.2919991,35.5773324 34.5853325,34.7613325 34.5853325,33.8413325 C34.5853325,33.1053325 34.4439991,32.3466659 34.1626658,31.5653325 C33.8773325,30.7813326 33.4879992,30.0706659 32.9879992,29.4253326 C32.4879992,28.7813326 31.9013325,28.2533326 31.2266659,27.8399993 C30.5533326,27.4253326 29.8466659,27.218666 29.1093326,27.218666 C28.238666,27.218666 27.4453326,27.482666 26.7279993,28.0119993 C26.010666,28.5399993 25.2933327,29.1266659 24.5773327,29.7706659 C23.8599994,30.4146659 23.1319994,31.0013326 22.3919994,31.5306659 C21.6533328,32.0586659 20.8279995,32.3239992 19.9159995,32.3239992 C18.0013329,32.3239992 16.5893329,31.7946659 15.6773329,30.7373326 C15.0679996,29.9999993 14.8839996,28.642666 14.6666663,26.666666" id="path1594"></path>
            </g>
            <g id="g1596" transform="translate(353.785858, 49.302665) scale(-1, 1) rotate(-180.000000) translate(-353.785858, -49.302665) translate(333.119192, 17.969333)" fill="#00A9DD">
                <path d="M34.6666658,61.3333333 L40.2013323,61.3333333 L40.2013323,21.4706661 C40.2013323,14.1306663 38.7986657,8.07866646 35.9893324,5.03066654 C33.1813325,1.98399995 28.514666,0.333333325 21.9893328,0.333333325 L4.24666656,0.333333325 L4.24666656,3.15866659 C4.24666656,6.12666651 6.48133317,8.66133312 9.23866644,8.66133312 L19.6973328,8.66133312 C21.3079995,8.66133312 21.7306661,9.05333311 22.7226661,9.83733309 C23.7133327,10.6226664 24.4666661,11.6506664 24.9839994,12.9186663 C25.498666,14.189333 25.798666,15.6319996 25.8813327,17.2466662 C25.9639994,18.8639995 25.9213327,20.3133328 25.7573327,21.9746661 L21.9279995,21.9746661 C18.2506662,21.9746661 15.0826663,22.3839994 12.4186664,22.8226661 C9.75466642,23.2613328 7.55599981,23.9186661 5.82133319,24.794666 C4.08666656,25.6719994 2.79599993,26.7693327 1.94933328,28.0853326 C1.10266664,29.3999993 0.65866665,30.9586659 0.617333318,32.7586658 L0.617333318,55.5853319 C0.617333318,56.6013319 0.834666646,57.4786652 1.26799997,58.2173319 C1.70133329,58.9559985 2.26933328,59.5679985 2.97199993,60.0519985 C3.67333324,60.5373318 4.45866656,60.9066651 5.3253332,61.1613318 C6.19333318,61.4133318 7.03866649,61.5413318 7.86533314,61.5413318 C8.64933312,61.5413318 9.45466643,61.4133318 10.2813331,61.1613318 C11.1066664,60.9066651 11.8506664,60.5133318 12.5119997,59.9839985 C13.1706663,59.4519985 13.7199997,58.8053319 14.153333,58.0439985 C14.5866663,57.2826652 14.8039996,56.4173319 14.8039996,55.4479986 C14.8439996,52.2159987 14.8439996,48.6399988 14.8039996,45.4999989 C14.761333,42.3599989 14.7826663,39.2693324 14.865333,36.2226658 C14.9466663,33.7279992 15.5986663,32.0199992 16.8173329,31.0973326 C18.0346662,30.1733326 19.6146662,29.7119993 21.5559995,29.7119993 L25.818666,29.7119993 L25.818666,52.7519987 C25.818666,57.4919986 30.2653326,61.3333333 34.6666658,61.3333333" id="path1598"></path>
            </g>
            <g id="g1600" transform="translate(231.268928, 39.411466) scale(-1, 1) rotate(-180.000000) translate(-231.268928, -39.411466) translate(211.268928, 18.744800)" fill="#00A9DD">
                <path d="M26.666666,27.9999993 C26.3799993,27.3599993 25.978666,26.7959993 25.462666,26.310666 C24.946666,25.8253327 24.3533327,25.4479994 23.6853327,25.1773327 C23.0173328,24.9053327 22.3186661,24.7693327 21.5933328,24.7693327 C20.0639995,24.7693327 18.7639995,25.2719994 17.6946662,26.282666 C16.6239996,27.290666 16.0893329,28.570666 16.0893329,30.1239992 C16.0893329,31.7533325 16.6053329,33.1293325 17.6373329,34.2559991 C18.6693329,35.3813324 19.9879995,35.9439991 21.5933328,35.9439991 C23.1986661,35.9439991 24.5173327,35.3813324 25.5493327,34.2559991 C26.5813327,33.1293325 27.0973327,31.7533325 27.0973327,30.1239992 C27.0973327,29.3479993 26.9533327,28.638666 26.666666,27.9999993 M38.9373324,28.0839993 C38.087999,30.7573326 36.8053324,32.9959992 35.0893325,34.7999991 C33.3719992,36.6053324 31.2946659,37.9853324 28.8559993,38.943999 C26.4173327,39.899999 23.7359994,40.379999 20.8106661,40.379999 C18.0533329,40.379999 15.4239996,39.9453323 12.9226663,39.0773324 C10.4213331,38.207999 8.22666646,36.9386657 6.33999984,35.2679991 C4.45199989,33.5973325 2.96933326,31.5693325 1.88799995,29.1879993 C0.806666646,26.8039993 0.307999992,24.0973327 0.393333324,21.0679995 C0.477333321,17.7266662 1.03999997,14.8199996 2.07866661,12.3479997 C3.11733326,9.87466642 4.56933322,7.82533314 6.43599984,6.19733318 C8.30133313,4.57199989 10.5159997,3.35866658 13.0826663,2.55733327 C15.6466663,1.75466662 17.7533329,1.33199997 20.8919995,1.28666663 C22.7146661,1.28666663 24.5586661,1.57733329 26.4253327,2.15599995 C28.290666,2.7346666 29.9653326,3.49199991 31.4506659,4.42799989 C32.9333325,5.36266653 34.1426658,6.39999984 35.0759991,7.53466648 C36.0066658,8.67066645 36.4519991,9.77333309 36.4106658,10.8439997 C36.3679991,12.089333 35.9119991,13.1146663 35.0439991,13.9159997 C34.1746658,14.7186663 33.1453325,15.1199996 31.9586659,15.1199996 C30.8559992,15.1199996 30.0186659,14.853333 29.4466659,14.3186663 C28.8746659,13.7839997 28.270666,13.2039997 27.6333326,12.581333 C26.998666,11.9559997 26.202666,11.3879997 25.2479994,10.8773331 C24.2946661,10.3639997 22.9266661,10.1306664 21.1453328,10.1746664 C18.8573329,10.2639997 17.1319996,10.9986664 15.8386663,12.3799997 C14.545333,13.7599997 13.793333,15.8559996 13.581333,18.6613329 L39.6373323,18.6613329 L39.827999,18.9959995 C40.0826657,22.3813328 39.783999,25.4119994 38.9373324,28.0839993" id="path1602"></path>
            </g>
            <g id="g1604" transform="translate(185.860662, 29.904933) scale(-1, 1) rotate(-180.000000) translate(-185.860662, -29.904933) translate(163.860663, 0.571600)" fill="#00A9DD">
                <path d="M27.9999993,25.3333327 C27.8693326,26.6959993 27.5639993,27.926666 27.086666,29.0239993 C26.6079993,30.1186659 25.890666,31.0026659 24.934666,31.6733325 C23.9773327,32.3439992 22.6733328,32.6799992 21.0226661,32.6799992 L15.6093329,32.6799992 L15.6093329,7.86133314 L20.2386662,7.86133314 C21.9346661,7.86133314 23.3053328,8.20666646 24.3479994,8.90133311 C25.390666,9.59333309 26.1839993,10.4999997 26.7279993,11.6186664 C27.270666,12.7359997 27.650666,14.0226663 27.8693326,15.4759996 C28.0853326,16.9293329 28.2373326,19.7319995 28.3253326,21.2066661 C28.2813326,22.5919994 28.130666,23.9693327 27.9999993,25.3333327 M20.4613328,39.7093323 C23.7226661,39.847999 26.710666,39.6066657 29.4279993,38.9853324 C32.1439992,38.363999 34.5026658,37.2946657 36.5039991,35.7773324 C38.5026657,34.2586658 39.887999,32.2453325 40.995999,29.7386659 C42.1053323,27.230666 42.6799989,24.1599994 42.7239989,20.5279995 C42.7239989,17.4439996 42.4186656,13.3666663 41.8106656,11.0426664 C41.2013323,8.71999978 40.2133323,6.77599983 38.843999,5.2133332 C37.4746657,3.64799991 35.8506658,2.4746666 33.6346658,1.69466662 C31.4173325,0.910666644 28.7213326,0.52133332 25.5479994,0.52133332 L5.85333319,0.52133332 C4.59199989,0.52133332 3.49466658,1.01466664 2.55999994,2.00399995 C1.62399996,2.99333326 1.15866664,4.15466656 1.15866664,5.4893332 L1.15866664,57.9319986 L6.5626665,57.9319986 C11.501333,57.9319986 15.6213329,55.8333319 15.6213329,50.8013321 L15.6213329,39.7093323 L20.4613328,39.7093323 Z" id="path1606"></path>
            </g>
        </g>
    </g>
</svg>
