<?xml version="1.0" encoding="UTF-8"?>
<svg width="374px" height="80px" viewBox="0 0 374 80" version="1.1" xmlns="http://www.w3.org/2000/svg" xmlns:xlink="http://www.w3.org/1999/xlink">
    <title>logo-bilssberry-white</title>
    <g id="logo-bilssberry-white" stroke="none" stroke-width="1" fill="none" fill-rule="evenodd">
        <polygon id="path1518" fill="#FFFFFF" fill-rule="nonzero" transform="translate(169.007729, 75.093065) scale(-1, 1) rotate(-180.000000) translate(-169.007729, -75.093065) " points="172.983062 79.1770647 172.983062 71.0090649 170.977729 71.0090649 170.977729 74.3583981 167.039062 74.3583981 167.039062 71.0090649 165.032396 71.0090649 165.032396 79.1770647 167.039062 79.1770647 167.039062 75.9570647 170.977729 75.9570647 170.977729 79.1770647"></polygon>
        <polygon id="path1522" fill="#FFFFFF" fill-rule="nonzero" transform="translate(182.111462, 75.093465) scale(-1, 1) rotate(-180.000000) translate(-182.111462, -75.093465) " points="185.468129 72.5267982 185.468129 71.0094649 178.754796 71.0094649 178.754796 79.1774647 185.306795 79.1774647 185.306795 77.662798 180.749462 77.662798 180.749462 75.8881314 184.774795 75.8881314 184.774795 74.4161314 180.749462 74.4161314 180.749462 72.5267982"></polygon>
        <path d="M195.859995,74.1961315 L194.485328,77.3241314 L193.110662,74.1961315 L195.859995,74.1961315 Z M196.491995,72.7601315 L192.466662,72.7601315 L191.698662,71.0094649 L189.642662,71.0094649 L193.506662,79.1774647 L195.489328,79.1774647 L199.365328,71.0094649 L197.259995,71.0094649 L196.491995,72.7601315 Z" id="path1526" fill="#FFFFFF" fill-rule="nonzero" transform="translate(194.503995, 75.093465) scale(-1, 1) rotate(-180.000000) translate(-194.503995, -75.093465) "></path>
        <polygon id="path1530" fill="#FFFFFF" fill-rule="nonzero" transform="translate(207.162395, 75.093065) scale(-1, 1) rotate(-180.000000) translate(-207.162395, -75.093065) " points="203.985728 79.1770647 205.992395 79.1770647 205.992395 72.5490648 210.339061 72.5490648 210.339061 71.0090649 203.985728 71.0090649"></polygon>
        <polygon id="path1534" fill="#FFFFFF" fill-rule="nonzero" transform="translate(217.327861, 75.093465) scale(-1, 1) rotate(-180.000000) translate(-217.327861, -75.093465) " points="216.284528 77.6374647 213.397861 77.6374647 213.397861 79.1774647 221.257861 79.1774647 221.257861 77.6374647 218.371195 77.6374647 218.371195 71.0094649 216.284528 71.0094649"></polygon>
        <polygon id="path1538" fill="#FFFFFF" fill-rule="nonzero" transform="translate(229.723328, 75.093065) scale(-1, 1) rotate(-180.000000) translate(-229.723328, -75.093065) " points="233.698661 79.1770647 233.698661 71.0090649 231.693328 71.0090649 231.693328 74.3583981 227.754661 74.3583981 227.754661 71.0090649 225.747994 71.0090649 225.747994 79.1770647 227.754661 79.1770647 227.754661 75.9570647 231.693328 75.9570647 231.693328 79.1770647"></polygon>
        <path d="M247.218794,77.880798 C247.050794,77.7421314 246.966794,77.5661314 246.966794,77.3501314 C246.966794,77.1861314 247.012127,77.0341314 247.10146,76.8927981 C247.190794,76.7487981 247.368127,76.5581314 247.62946,76.3194647 C248.048127,76.5274647 248.33746,76.7141314 248.50146,76.8807981 C248.66546,77.0461314 248.748127,77.2261314 248.748127,77.4181314 C248.748127,77.6194647 248.67346,77.7821314 248.526794,77.904798 C248.378794,78.0274647 248.170794,78.088798 247.900127,78.088798 C247.61346,78.088798 247.38546,78.0194647 247.218794,77.880798 M249.238794,72.8594648 L247.162794,74.6874648 C246.77746,74.4794648 246.504127,74.2754648 246.340127,74.0754648 C246.176127,73.8741315 246.094794,73.6461315 246.094794,73.3914648 C246.094794,73.0901315 246.233461,72.8487982 246.512127,72.6634648 C246.790794,72.4767982 247.162794,72.3847982 247.62946,72.3847982 C248.226794,72.3847982 248.764127,72.5421315 249.238794,72.8594648 M251.400127,70.9727982 L250.36946,71.8754648 C249.54946,71.2741315 248.592127,70.9727982 247.494794,70.9727982 C246.872127,70.9727982 246.312127,71.0687982 245.812127,71.2567982 C245.313461,71.4461315 244.921461,71.7087982 244.638794,72.0487982 C244.357461,72.3887982 244.216127,72.7701315 244.216127,73.1954648 C244.216127,73.6954648 244.365461,74.1367981 244.662794,74.5194648 C244.962794,74.9021314 245.444127,75.2661314 246.106794,75.6141314 C245.796127,75.9141314 245.570794,76.2007981 245.432127,76.4754647 C245.292127,76.7487981 245.222794,77.032798 245.222794,77.3261314 C245.222794,77.7194647 245.332127,78.0674647 245.553461,78.3674647 C245.774794,78.668798 246.088127,78.9021313 246.494794,79.0674647 C246.898794,79.2341313 247.368127,79.316798 247.900127,79.316798 C248.64546,79.316798 249.242794,79.148798 249.692127,78.812798 C250.142794,78.4781313 250.36946,78.0234647 250.36946,77.4541314 C250.36946,77.036798 250.234794,76.6674647 249.96946,76.3434647 C249.702794,76.0194647 249.276127,75.7061314 248.686794,75.4061314 L250.25746,74.0274648 C250.446794,74.3994648 250.58946,74.8181314 250.688127,75.2901314 L252.222794,74.8381314 C252.058794,74.1207981 251.79746,73.5074648 251.43746,72.9981315 L252.444127,72.1194648 L251.400127,70.9727982 Z" id="path1542" fill="#FFFFFF" fill-rule="nonzero" transform="translate(248.330127, 75.144798) scale(-1, 1) rotate(-180.000000) translate(-248.330127, -75.144798) "></path>
        <path d="M268.650393,72.6386648 C268.92106,72.8026648 269.055727,73.0573315 269.055727,73.4013315 C269.055727,74.0826648 268.519727,74.4239981 267.44906,74.4239981 L265.094393,74.4239981 L265.094393,72.3919982 L267.44906,72.3919982 C267.979727,72.3919982 268.379727,72.4746648 268.650393,72.6386648 M265.094393,77.743998 L265.094393,75.8093314 L267.099727,75.8093314 C267.598393,75.8093314 267.975727,75.8906647 268.23306,76.0559981 C268.490393,76.2199981 268.619727,76.4613314 268.619727,76.7813314 C268.619727,77.103998 268.490393,77.3426647 268.23306,77.503998 C267.975727,77.6653314 267.598393,77.743998 267.099727,77.743998 L265.094393,77.743998 Z M270.662393,74.4879981 C270.94506,74.1399981 271.086393,73.7106648 271.086393,73.2026648 C271.086393,72.4826648 270.78906,71.9293315 270.195727,71.5426649 C269.60106,71.1546649 268.735727,70.9599982 267.598393,70.9599982 L263.08906,70.9599982 L263.08906,79.175998 L267.34906,79.175998 C268.411727,79.175998 269.227727,78.9853313 269.79706,78.6026647 C270.366393,78.2186647 270.650393,77.6986647 270.650393,77.0413314 C270.650393,76.6426647 270.54906,76.2853314 270.34506,75.9733314 C270.14106,75.6599981 269.85706,75.4133314 269.491727,75.2319981 C269.990393,75.0839981 270.379727,74.8346648 270.662393,74.4879981" id="path1546" fill="#FFFFFF" fill-rule="nonzero" transform="translate(267.087727, 75.067998) scale(-1, 1) rotate(-180.000000) translate(-267.087727, -75.067998) "></path>
        <polygon id="path1550" fill="#FFFFFF" fill-rule="nonzero" transform="translate(279.732126, 75.067731) scale(-1, 1) rotate(-180.000000) translate(-279.732126, -75.067731) " points="283.108126 72.4857315 283.108126 70.9590649 276.356126 70.9590649 276.356126 79.176398 282.94546 79.176398 282.94546 77.6510647 278.36146 77.6510647 278.36146 75.8657314 282.410793 75.8657314 282.410793 74.3870648 278.36146 74.3870648 278.36146 72.4857315"></polygon>
        <path d="M293.560526,74.1633315 L292.177859,77.3086647 L290.795193,74.1633315 L293.560526,74.1633315 Z M294.196526,72.7193315 L290.147193,72.7193315 L289.373859,70.9593315 L287.307193,70.9593315 L291.193859,79.1753313 L293.187193,79.1753313 L297.085859,70.9593315 L294.968526,70.9593315 L294.196526,72.7193315 Z" id="path1554" fill="#FFFFFF" fill-rule="nonzero" transform="translate(292.196526, 75.067331) scale(-1, 1) rotate(-180.000000) translate(-292.196526, -75.067331) "></path>
        <path d="M302.511726,71.9330648 C301.817059,72.5823982 301.470392,73.5103981 301.470392,74.7157314 L301.470392,79.3157313 L303.489059,79.3157313 L303.489059,74.7863981 C303.489059,73.3143981 304.137059,72.5783982 305.433059,72.5783982 C306.063726,72.5783982 306.546392,72.7570648 306.877059,73.1130648 C307.210392,73.4690648 307.375726,74.0263981 307.375726,74.7863981 L307.375726,79.3157313 L309.369059,79.3157313 L309.369059,74.7157314 C309.369059,73.5103981 309.022392,72.5823982 308.329059,71.9330648 C307.635726,71.2837315 306.666392,70.9597315 305.421059,70.9597315 C304.174392,70.9597315 303.205059,71.2837315 302.511726,71.9330648" id="path1558" fill="#FFFFFF" fill-rule="nonzero" transform="translate(305.419726, 75.137731) scale(-1, 1) rotate(-180.000000) translate(-305.419726, -75.137731) "></path>
        <polygon id="path1562" fill="#FFFFFF" fill-rule="nonzero" transform="translate(317.765192, 75.067731) scale(-1, 1) rotate(-180.000000) translate(-317.765192, -75.067731) " points="316.756525 77.626398 313.965859 77.626398 313.965859 79.1757313 321.564525 79.1757313 321.564525 77.626398 318.775192 77.626398 318.775192 70.9597315 316.756525 70.9597315"></polygon>
        <polygon id="path1566" fill="#FFFFFF" fill-rule="nonzero" transform="translate(329.408792, 75.067598) scale(-1, 1) rotate(-180.000000) translate(-329.408792, -75.067598) " points="330.410792 73.8709315 330.410792 70.9589315 328.392125 70.9589315 328.392125 73.8949315 325.017459 79.1762647 327.160125 79.1762647 329.489458 75.5255981 331.818792 79.1762647 333.800125 79.1762647"></polygon>
        <path d="M27.9999993,20.1781328 C27.5279993,21.3847994 26.8853327,22.4194661 26.0733327,23.2807994 C25.2613327,24.1421327 24.2919994,24.819466 23.1666661,25.3127993 C22.0386661,25.8047993 20.8213328,26.0501327 19.5146662,26.0501327 L14.3079996,26.0501327 L14.3079996,7.43546646 L20.5279995,7.43546646 C23.0986661,7.43546646 25.1039994,8.19946644 26.546666,9.72613307 C27.9893326,11.2514664 28.7106659,13.4194663 28.7106659,16.2261329 C28.7106659,17.6541329 28.4733326,18.9714662 27.9999993,20.1781328 M27.490666,41.0287989 C27.490666,44.0074655 26.7999993,46.3047988 25.2813327,47.9247988 C23.7639994,49.5434654 21.7146661,50.354132 19.1333329,50.354132 L14.3079996,50.354132 L14.3079996,32.3327992 L19.9479995,32.3327992 C25.0213327,32.3327992 27.534666,35.2314658 27.490666,41.0287989 M43.2106656,7.43546646 C40.115999,2.60879991 35.0719991,0.19679997 28.0773326,0.19679997 L0.0293333326,0.19679997 L0.0293333326,52.3474653 C0.0293333326,53.7754653 0.510666654,55.0181319 1.47466663,56.0781319 C2.43866661,57.1367985 3.57199991,57.6661319 4.87199988,57.6661319 L25.050666,57.6661319 C30.0279992,57.6661319 34.1066658,56.4594652 37.2906657,54.0474653 C41.0573323,51.2887987 42.9413323,47.3247988 42.9413323,42.1541323 C42.9413323,38.7061323 41.9093323,35.7754657 39.847999,33.3647991 C37.8293324,31.0007992 35.2493325,29.6714659 32.1119992,29.3754659 L32.0453325,29.1541326 C35.6319991,28.3661326 38.6133324,26.763466 40.9906656,24.3527994 C43.6359989,21.5941328 44.9599989,18.3181329 44.9599989,14.5274663 C44.9599989,11.670133 44.3759989,9.30746641 43.2106656,7.43546646" id="path1570" fill="#FFFFFF" fill-rule="nonzero" transform="translate(22.494666, 28.931466) scale(-1, 1) rotate(-180.000000) translate(-22.494666, -28.931466) "></path>
        <path d="M64.5541317,0.19599997 L50.2207987,0.19599997 L50.1541321,50.0773321 C50.1541321,51.0879987 50.3527987,52.0546653 50.7487987,52.973332 C51.1447987,53.893332 51.6727987,54.6999986 52.334132,55.3893319 C52.994132,56.0799986 53.7647987,56.6306652 54.646132,57.0453319 C55.5261319,57.4586652 56.4514653,57.6666652 57.4194652,57.6666652 C58.3887985,57.6666652 59.3034652,57.4586652 60.1621318,57.0453319 C61.0207985,56.6306652 61.7794651,56.0799986 62.4407984,55.3893319 C63.1007984,54.6999986 63.6181317,53.893332 63.9927984,52.973332 C64.3661317,52.0546653 64.5541317,51.0879987 64.5541317,50.0773321 L64.5541317,0.19599997 Z" id="path1574" fill="#FFFFFF" fill-rule="nonzero" transform="translate(57.354132, 28.931333) scale(-1, 1) rotate(-180.000000) translate(-57.354132, -28.931333) "></path>
        <path d="M84.1047979,49.3263987 C83.7967979,48.6650654 83.3647979,48.0837321 82.8087979,47.5837321 C82.2541313,47.0823988 81.6154646,46.6917321 80.896798,46.4117321 C80.1781313,46.1317322 79.4274647,45.9917322 78.6461314,45.9917322 C77.0007981,45.9917322 75.6021314,46.5117321 74.4514648,47.5543988 C73.2994648,48.5943988 72.7247982,49.9157321 72.7247982,51.519732 C72.7247982,53.2023986 73.2794648,54.6237319 74.3901315,55.7863986 C75.5007981,56.9463986 76.9181314,57.5277319 78.6461314,57.5277319 C80.372798,57.5277319 81.7914646,56.9463986 82.9021313,55.7863986 C84.0127979,54.6237319 84.5674646,53.2023986 84.5674646,51.519732 C84.5674646,50.7183987 84.4127979,49.9877321 84.1047979,49.3263987 M86.0621312,0.197066637 L71.7247982,0.197066637 L71.7247982,34.6503991 C71.7247982,35.6850657 71.9207982,37.350399 72.3114649,38.2930657 C72.7021315,39.2330657 73.2234648,40.0570656 73.8754648,40.7637323 C74.5261315,41.4690656 75.2861315,42.0343989 76.1567981,42.4570656 C77.0247981,42.8810656 77.9381314,43.0930656 78.892798,43.0930656 C79.804798,43.0930656 80.6954646,42.8810656 81.5661313,42.4570656 C82.4341313,42.0343989 83.2154646,41.4690656 83.9114646,40.7637323 C84.6061312,40.0570656 85.1501312,39.2330657 85.5407979,38.2930657 C85.9314645,37.350399 86.1047978,35.6850657 86.0621312,34.6503991 L86.0621312,0.197066637 Z" id="path1578" fill="#FFFFFF" fill-rule="nonzero" transform="translate(78.896625, 28.862399) scale(-1, 1) rotate(-180.000000) translate(-78.896625, -28.862399) "></path>
        <path d="M128.662797,23.8599527 C128.093463,24.545286 127.80813,25.229286 127.80813,25.913286 C127.80813,26.6439527 127.994797,27.317286 128.36813,27.9346193 C128.738797,28.5519526 129.254797,29.0532859 129.91213,29.4412859 C130.569463,29.8292859 131.269463,30.0226192 132.014797,30.0226192 C132.582797,30.0226192 133.24013,29.7719526 133.985463,29.2706193 C134.729463,28.7666193 135.497463,28.2199526 136.285463,27.6266193 C137.074797,27.0319526 137.862797,26.4839527 138.650797,25.9826193 C139.44013,25.4799527 140.162796,25.229286 140.82013,25.229286 C143.622796,25.229286 145.02413,26.3466193 145.02413,28.5839526 C145.02413,29.2226193 144.718796,29.8186192 144.105463,30.3652859 C143.490796,30.9132859 142.746796,31.4026192 141.870796,31.8372859 C140.994796,32.2706192 140.085463,32.6599525 139.14413,33.0012858 C138.201463,33.3439525 137.42413,33.6519525 136.810797,33.9266191 C130.677463,36.4826191 127.61213,40.110619 127.61213,44.8146189 C127.61213,46.9586188 128.01613,48.8319521 128.82813,50.4292854 C129.637463,52.0266187 130.721463,53.3612853 132.08013,54.435952 C133.437463,55.5079519 135.00413,56.3292852 136.777463,56.8999519 C138.55213,57.4706186 140.425463,57.7786185 142.39613,57.8252852 C143.710796,57.8692852 145.198796,57.6759519 146.865463,57.2426186 C148.529463,56.8079519 150.073463,56.2266186 151.497463,55.4972853 C152.921463,54.7652853 154.114796,53.8972853 155.078796,52.8946187 C156.042796,51.8892854 156.501463,50.8399521 156.458796,49.7452854 C156.414796,48.6932854 156.032129,47.8612855 155.308129,47.2452855 C154.585463,46.6279522 153.720129,46.3212855 152.713463,46.3212855 C152.14413,46.3212855 151.962796,46.2372855 151.16813,46.7146188 C150.473463,47.1306188 149.589463,47.7332855 148.84413,48.3492854 C148.10013,48.9666188 147.310796,49.5132854 146.478796,49.9932854 C145.646796,50.4719521 144.74813,50.7119521 143.785463,50.7119521 C141.24413,50.6666187 139.965463,49.8812854 139.965463,47.5532855 C139.965463,46.9132855 140.249463,46.3546188 140.82013,45.8759522 C141.38813,45.3959522 142.089463,44.9506189 142.922796,44.5399522 C143.753463,44.1292856 144.662796,43.7519522 145.649463,43.4106189 C146.634796,43.0679522 147.54413,42.7359523 148.377463,42.4172856 C154.685463,39.9519523 157.838796,36.2546191 157.838796,31.3252859 C157.838796,29.1772859 157.400129,27.2946193 156.524129,25.673286 C155.648129,24.0532861 154.486796,22.6959528 153.041463,21.6012861 C151.59613,20.5039528 149.953463,19.6932862 148.113463,19.1679528 C146.273463,18.6439529 144.36813,18.4039529 142.39613,18.4492862 C136.394797,18.4492862 131.817463,20.2519528 128.662797,23.8599527" id="path1582" fill="#FFFFFF" fill-rule="nonzero" transform="translate(142.725463, 38.137642) scale(-1, 1) rotate(-180.000000) translate(-142.725463, -38.137642) "></path>
        <path d="M94.1042643,23.8599527 C93.534931,24.545286 93.2495977,25.229286 93.2495977,25.913286 C93.2495977,26.6439527 93.4362643,27.317286 93.8095977,27.9346193 C94.1802643,28.5519526 94.6962643,29.0532859 95.3535976,29.4412859 C96.0109309,29.8292859 96.7109309,30.0226192 97.4562642,30.0226192 C98.0242642,30.0226192 98.6815975,29.7719526 99.4269308,29.2706193 C100.170931,28.7666193 100.938931,28.2199526 101.726931,27.6266193 C102.516264,27.0319526 103.304264,26.4839527 104.093597,25.9826193 C104.881597,25.4799527 105.604264,25.229286 106.261597,25.229286 C109.064264,25.229286 110.465597,26.3466193 110.465597,28.5839526 C110.465597,29.2226193 110.160264,29.8186192 109.546931,30.3652859 C108.932264,30.9132859 108.188264,31.4026192 107.312264,31.8372859 C106.436264,32.2706192 105.526931,32.6599525 104.585597,33.0012858 C103.642931,33.3439525 102.865597,33.6519525 102.252264,33.9266191 C96.1189309,36.4826191 93.0535977,40.110619 93.0535977,44.8146189 C93.0535977,46.9586188 93.4575977,48.8319521 94.2695976,50.4292854 C95.078931,52.0266187 96.1629309,53.3612853 97.5215976,54.435952 C98.8789309,55.5079519 100.445597,56.3292852 102.220264,56.8999519 C103.994931,57.4706186 105.866931,57.7786185 107.838931,57.8252852 C109.152264,57.8692852 110.640264,57.6759519 112.306931,57.2426186 C113.97093,56.8079519 115.51493,56.2266186 116.93893,55.4972853 C118.36293,54.7652853 119.556264,53.8972853 120.520264,52.8946187 C121.484264,51.8892854 121.94293,50.8399521 121.900264,49.7452854 C121.856264,48.6932854 121.473597,47.8612855 120.749597,47.2452855 C120.02693,46.6279522 119.161597,46.3212855 118.15493,46.3212855 C117.585597,46.3212855 117.404264,46.2372855 116.61093,46.7146188 C115.916264,47.1306188 115.03093,47.7332855 114.28693,48.3492854 C113.541597,48.9666188 112.752264,49.5132854 111.920264,49.9932854 C111.088264,50.4719521 110.189597,50.7119521 109.226931,50.7119521 C106.685597,50.6666187 105.406931,49.8812854 105.406931,47.5532855 C105.406931,46.9132855 105.690931,46.3546188 106.261597,45.8759522 C106.829597,45.3959522 107.530931,44.9506189 108.364264,44.5399522 C109.194931,44.1292856 110.104264,43.7519522 111.090931,43.4106189 C112.076264,43.0679522 112.985597,42.7359523 113.81893,42.4172856 C120.12693,39.9519523 123.280264,36.2546191 123.280264,31.3252859 C123.280264,29.1772859 122.841597,27.2946193 121.965597,25.673286 C121.089597,24.0532861 119.929597,22.6959528 118.48293,21.6012861 C117.037597,20.5039528 115.39493,19.6932862 113.55493,19.1679528 C111.714931,18.6439529 109.809597,18.4039529 107.838931,18.4492862 C101.836264,18.4492862 97.2589309,20.2519528 94.1042643,23.8599527" id="path1586" fill="#FFFFFF" fill-rule="nonzero" transform="translate(108.166931, 38.137642) scale(-1, 1) rotate(-180.000000) translate(-108.166931, -38.137642) "></path>
        <path d="M272.737593,43.8454489 L272.737593,18.4561162 L258.425594,18.3867828 L258.425594,57.7121152 L272.737593,57.7121152 L272.737593,54.8147819 C273.47626,55.5961153 274.041593,56.1947819 274.88826,56.6094486 C275.73626,57.0214485 276.61626,57.3441152 277.529593,57.5747819 C278.093593,57.7121152 278.865593,57.7694485 279.84426,57.7467819 C280.821593,57.7227819 281.865593,57.6201152 282.973593,57.4361152 C284.081593,57.2521152 285.210926,56.9881152 286.36426,56.6427819 C287.514926,56.2974486 288.558926,55.8601152 289.493593,55.3321153 C290.428259,54.8027819 291.188259,54.1814486 291.774926,53.4694486 C292.361593,52.7561153 292.654926,51.9401153 292.654926,51.0201154 C292.654926,50.2841154 292.513593,49.5254487 292.232259,48.7441154 C291.948259,47.9601154 291.557593,47.2494488 291.057593,46.6041155 C290.558926,45.9601155 289.970926,45.4321155 289.297593,45.0187822 C288.624259,44.6041155 287.917593,44.3974489 287.178926,44.3974489 C286.30826,44.3974489 285.51626,44.6614489 284.798926,45.1907822 C284.081593,45.7187822 283.36426,46.3054488 282.646926,46.9494488 C281.930926,47.5934488 281.202926,48.1801154 280.462926,48.7094488 C279.722926,49.2374487 278.897593,49.5027821 277.985593,49.5027821 C276.07226,49.5027821 274.66026,48.9734488 273.746926,47.9161154 C273.138927,47.1787821 272.954927,45.8214488 272.737593,43.8454489" id="path1590" fill="#FFFFFF" fill-rule="nonzero" transform="translate(275.540260, 38.069191) scale(-1, 1) rotate(-180.000000) translate(-275.540260, -38.069191) "></path>
        <path d="M310.289059,43.8454489 L310.289059,18.4561162 L295.978393,18.3867828 L295.978393,57.7121152 L310.289059,57.7121152 L310.289059,54.8147819 C311.027726,55.5961153 311.593059,56.1947819 312.441059,56.6094486 C313.289059,57.0214485 314.167725,57.3441152 315.081059,57.5747819 C315.646392,57.7121152 316.418392,57.7694485 317.395725,57.7467819 C318.373059,57.7227819 319.417059,57.6201152 320.526392,57.4361152 C321.633059,57.2521152 322.763725,56.9881152 323.915725,56.6427819 C325.066392,56.2974486 326.110392,55.8601152 327.045058,55.3321153 C327.979725,54.8027819 328.739725,54.1814486 329.326392,53.4694486 C329.914392,52.7561153 330.207725,51.9401153 330.207725,51.0201154 C330.207725,50.2841154 330.066392,49.5254487 329.785058,48.7441154 C329.499725,47.9601154 329.110392,47.2494488 328.610392,46.6041155 C328.110392,45.9601155 327.523725,45.4321155 326.849058,45.0187822 C326.175725,44.6041155 325.469059,44.3974489 324.731725,44.3974489 C323.861059,44.3974489 323.067725,44.6614489 322.350392,45.1907822 C321.633059,45.7187822 320.915725,46.3054488 320.199725,46.9494488 C319.482392,47.5934488 318.754392,48.1801154 318.014392,48.7094488 C317.275725,49.2374487 316.450392,49.5027821 315.538392,49.5027821 C313.623725,49.5027821 312.211726,48.9734488 311.299726,47.9161154 C310.690392,47.1787821 310.506392,45.8214488 310.289059,43.8454489" id="path1594" fill="#FFFFFF" fill-rule="nonzero" transform="translate(313.093059, 38.069191) scale(-1, 1) rotate(-180.000000) translate(-313.093059, -38.069191) "></path>
        <path d="M367.785857,79.0946662 L373.320524,79.0946662 L373.320524,39.231999 C373.320524,31.8919992 371.917857,25.8399993 369.108524,22.7919994 C366.300524,19.7453328 361.633858,18.0946662 355.108524,18.0946662 L337.365858,18.0946662 L337.365858,20.9199995 C337.365858,23.8879994 339.600525,26.422666 342.357858,26.422666 L352.816525,26.422666 C354.427191,26.422666 354.849858,26.814666 355.841858,27.598666 C356.832524,28.3839993 357.585858,29.4119992 358.103191,30.6799992 C358.617858,31.9506658 358.917858,33.3933325 359.000524,35.0079991 C359.083191,36.6253324 359.040524,38.0746657 358.876524,39.735999 L355.047191,39.735999 C351.369858,39.735999 348.201858,40.1453323 345.537858,40.583999 C342.873858,41.0226656 340.675191,41.6799989 338.940525,42.5559989 C337.205858,43.4333322 335.915192,44.5306655 335.068525,45.8466655 C334.221858,47.1613321 333.777858,48.7199988 333.736525,50.5199987 L333.736525,73.3466648 C333.736525,74.3626648 333.953858,75.2399981 334.387192,75.9786647 C334.820525,76.7173314 335.388525,77.3293314 336.091192,77.8133314 C336.792525,78.2986647 337.577858,78.667998 338.444525,78.9226647 C339.312525,79.1746647 340.157858,79.3026647 340.984525,79.3026647 C341.768525,79.3026647 342.573858,79.1746647 343.400525,78.9226647 C344.225858,78.667998 344.969858,78.2746647 345.631191,77.7453314 C346.289858,77.2133314 346.839191,76.5666647 347.272525,75.8053314 C347.705858,75.0439981 347.923191,74.1786648 347.923191,73.2093315 C347.963191,69.9773316 347.963191,66.4013316 347.923191,63.2613317 C347.880525,60.1213318 347.901858,57.0306652 347.984525,53.9839986 C348.065858,51.489332 348.717858,49.7813321 349.936525,48.8586654 C351.153858,47.9346654 352.733858,47.4733321 354.675191,47.4733321 L358.937858,47.4733321 L358.937858,70.5133315 C358.937858,75.2533314 363.384524,79.0946662 367.785857,79.0946662" id="path1598" fill="#FFFFFF" fill-rule="nonzero" transform="translate(353.528524, 48.698665) scale(-1, 1) rotate(-180.000000) translate(-353.528524, -48.698665) "></path>
        <path d="M237.935594,45.4114655 C237.648927,44.7714655 237.247594,44.2074655 236.731594,43.7221322 C236.215594,43.2367989 235.622261,42.8594656 234.954261,42.5887989 C234.286261,42.3167989 233.587594,42.1807989 232.862261,42.1807989 C231.332928,42.1807989 230.032928,42.6834656 228.963594,43.6941322 C227.892928,44.7021322 227.358261,45.9821322 227.358261,47.5354655 C227.358261,49.1647987 227.874261,50.5407987 228.906261,51.6674653 C229.938261,52.7927987 231.256928,53.3554653 232.862261,53.3554653 C234.467594,53.3554653 235.786261,52.7927987 236.818261,51.6674653 C237.850261,50.5407987 238.366261,49.1647987 238.366261,47.5354655 C238.366261,46.7594655 238.222261,46.0501322 237.935594,45.4114655 M250.20626,45.4954655 C249.356927,48.1687988 248.07426,50.4074654 246.358261,52.2114653 C244.640927,54.0167986 242.563594,55.3967986 240.124927,56.3554652 C237.686261,57.3114652 235.004927,57.7914652 232.079594,57.7914652 C229.322261,57.7914652 226.692928,57.3567985 224.191594,56.4887986 C221.690261,55.6194653 219.495595,54.3501319 217.608928,52.6794653 C215.720928,51.0087987 214.238261,48.9807988 213.156928,46.5994655 C212.075595,44.2154655 211.576928,41.5087989 211.662261,38.4794657 C211.746261,35.1381324 212.308928,32.2314658 213.347595,29.7594659 C214.386261,27.2861326 215.838261,25.2367993 217.704928,23.6087994 C219.570261,21.9834661 221.784928,20.7701328 224.351594,19.9687995 C226.915594,19.1661328 229.022261,18.7434662 232.160928,18.6981328 C233.983594,18.6981328 235.827594,18.9887995 237.694261,19.5674662 C239.559594,20.1461328 241.234261,20.9034661 242.719594,21.8394661 C244.202261,22.7741327 245.411594,23.811466 246.344927,24.9461327 C247.275594,26.0821327 247.720927,27.1847993 247.679594,28.2554659 C247.636927,29.5007992 247.180927,30.5261325 246.312927,31.3274659 C245.443594,32.1301325 244.414261,32.5314658 243.227594,32.5314658 C242.124927,32.5314658 241.287594,32.2647992 240.715594,31.7301325 C240.143594,31.1954659 239.539594,30.6154659 238.902261,29.9927992 C238.267594,29.3674659 237.471594,28.7994659 236.516927,28.2887993 C235.563594,27.7754659 234.195594,27.5421326 232.414261,27.5861326 C230.126261,27.6754659 228.400928,28.4101326 227.107594,29.7914659 C225.814261,31.1714659 225.062261,33.2674658 224.850261,36.0727991 L250.90626,36.0727991 L251.096927,36.4074657 C251.351594,39.792799 251.052927,42.8234656 250.20626,45.4954655" id="path1602" fill="#FFFFFF" fill-rule="nonzero" transform="translate(231.418904, 38.244799) scale(-1, 1) rotate(-180.000000) translate(-231.418904, -38.244799) "></path>
        <path d="M191.860662,25.118266 C191.729995,26.4809326 191.424662,27.7115993 190.947329,28.8089326 C190.468662,29.9035992 189.751329,30.7875992 188.795329,31.4582659 C187.837995,32.1289325 186.533995,32.4649325 184.883329,32.4649325 L179.469996,32.4649325 L179.469996,7.64626645 L184.099329,7.64626645 C185.795329,7.64626645 187.165995,7.99159978 188.208662,8.68626642 C189.251329,9.37826641 190.044662,10.2849331 190.588662,11.4035997 C191.131329,12.520933 191.511329,13.8075996 191.729995,15.2609329 C191.945995,16.7142662 192.097995,19.5169328 192.185995,20.9915995 C192.141995,22.3769327 191.991329,23.754266 191.860662,25.118266 M184.321995,39.4942657 C187.583329,39.6329323 190.571329,39.391599 193.288662,38.7702657 C196.004662,38.1489324 198.363328,37.079599 200.364662,35.5622658 C202.363328,34.0435991 203.748662,32.0302658 204.856662,29.5235992 C205.965995,27.0155993 206.540662,23.9449327 206.584662,20.3129328 C206.584662,17.2289329 206.279328,13.1515996 205.671328,10.8275997 C205.061995,8.5049331 204.073995,6.56093314 202.704662,4.99826652 C201.335328,3.43293322 199.711328,2.25959992 197.495328,1.47959994 C195.277995,0.695599958 192.581995,0.306266634 189.408662,0.306266634 L169.713996,0.306266634 C168.452662,0.306266634 167.355329,0.799599955 166.420663,1.78893326 C165.484663,2.77826657 165.019329,3.93959988 165.019329,5.27426651 L165.019329,57.7169319 L170.423329,57.7169319 C175.361996,57.7169319 179.481996,55.6182653 179.481996,50.5862654 L179.481996,39.4942657 L184.321995,39.4942657 Z" id="path1606" fill="#FFFFFF" fill-rule="nonzero" transform="translate(185.801995, 29.011599) scale(-1, 1) rotate(-180.000000) translate(-185.801995, -29.011599) "></path>
    </g>
</svg>
